# xmcd
#
# Track frame offsets:
#       150
#       23737
#       41076
#       56413
#       70629
#       91871
#       113869
#       126710
#       146342
#       163997
#       178958
#       196548
#       213274
#       232430
#       247042
#       263337
#       280410
#       294560
#       306304
#
# Disc length: 4234 seconds
#
# Revision: 1
# Processed by: cddbd v1.5.2PL0 Copyright (c) Steve Scherf et al.
# Submitted via: FreeDbEdit v0.1
#
DISCID=22108813
DTITLE=Dixie Chicks - Fly
DYEAR=1900
DGENRE=Country
TTITLE0=Cold Day in July
TTITLE1=Hello Mr. Heartache
TTITLE2=Hole in My Head
TTITLE3=Let Him Fly
TTITLE4=Cma Avards Traveli'n Soldider
TTITLE5=Cowboy Take Me Away
TTITLE6=Don't Waste Your Heart
TTITLE7=Goodbye Earl
TTITLE8=Heartbreak Town
TTITLE9=Let Him Fly (Live)
TTITLE10=Ready to Run
TTITLE11=Sin Wagon
TTITLE12=Srong Enuogh
TTITLE13=There You're Trouble
TTITLE14=When You Were Mine
TTITLE15=Wide Open Spaces
TTITLE16=You Can't Hurry Love
TTITLE17=Your Going Down With Me
TTITLE18=Somedays You Gotta Dance
EXTD=ID3G: 2
EXTT0=
EXTT1=
EXTT2=
EXTT3=
EXTT4=
EXTT5=
EXTT6=
EXTT7=
EXTT8=
EXTT9=
EXTT10=
EXTT11=
EXTT12=
EXTT13=
EXTT14=
EXTT15=
EXTT16=
EXTT17=
EXTT18=
PLAYORDER=
